<svg width="64" height="64" viewBox="0 0 64 64" fill="none" xmlns="http://www.w3.org/2000/svg">
<g clip-path="url(#clip0)">
<path d="M25.8205 33.885C25.8205 33.885 31.8815 33.4359 31.8815 26.4263C31.8815 19.4166 26.9254 16 20.6531 16H0V55.1707H20.6531C20.6531 55.1707 33.2628 55.5717 33.2628 43.6055C33.2628 43.6216 33.8152 33.885 25.8205 33.885ZM19.1582 22.9615H20.6369C20.6369 22.9615 23.448 22.9615 23.448 27.0358C23.448 31.1101 21.7906 31.7036 19.9219 31.7036H9.09973V22.9615H19.1582ZM20.0681 48.2091H9.09973V37.7347H20.6531C20.6531 37.7347 24.8293 37.6866 24.8293 43.1083C24.8293 47.7119 21.7093 48.177 20.0681 48.2091ZM50.081 25.9611C34.8227 25.9611 34.839 41.007 34.839 41.007C34.839 41.007 33.799 55.9887 50.081 55.9887C50.081 55.9887 63.6656 56.7587 63.6656 45.5785H56.6783C56.6783 45.5785 56.9058 49.7971 50.3085 49.7971C50.3085 49.7971 43.3212 50.2623 43.3212 42.98H63.8931C63.8931 42.98 66.1355 25.9611 50.081 25.9611ZM43.24 37.7508C43.24 37.7508 44.0849 31.7196 50.2272 31.7196C56.3533 31.7196 56.2883 37.7508 56.2883 37.7508H43.24ZM57.9133 23.138H41.5338V18.3098H57.9133V23.138Z" fill="white"/>
</g>
<defs>
<clipPath id="clip0">
<rect width="64" height="64.0001" fill="white"/>
</clipPath>
</defs>
</svg>
