<svg width="64" height="64" viewBox="0 0 64 64" fill="none" xmlns="http://www.w3.org/2000/svg">
<path d="M63 46.9539C63 51.5072 59.4957 55 54.9272 55C47.2801 55 39.633 55 32 55C24.4096 55 16.8192 55 9.22883 55C4.46179 55 1 51.5638 1 46.8266C1 36.8998 1 26.9729 1 17.0461C1 13.1008 3.61053 9.91915 7.49794 9.14141C8.02288 9.04242 8.54783 9 9.07277 9C24.367 9 39.6471 9 54.9414 9C59.5098 9 63 12.5069 63 17.0603" fill="white"/>
<path d="M4.17822 16.6074C5.3558 17.6538 6.44825 18.6154 7.52651 19.577C13.7123 25.0919 19.9123 30.5927 26.0981 36.1076C29.5032 39.1478 34.4972 39.1478 37.9023 36.1076C45.067 29.7301 52.246 23.3384 59.4107 16.9609C59.51 16.862 59.6235 16.7771 59.7512 16.6923C59.8931 16.8761 59.8222 17.0599 59.8222 17.2296C59.8222 27.0858 59.8222 36.9419 59.8222 46.798C59.8222 49.81 57.7933 51.818 54.7714 51.818C39.5906 51.818 24.4098 51.818 9.22902 51.818C6.20706 51.818 4.17822 49.81 4.17822 46.798C4.17822 36.9277 4.17822 27.0433 4.17822 17.1731C4.17822 17.0458 4.17822 16.9044 4.17822 16.6074Z" fill="#11161C"/>
<path d="M32 12.1675C39.6046 12.1675 47.2091 12.1675 54.8279 12.1675C55.9204 12.1675 56.9135 12.4362 57.8215 13.0584C58.1478 13.2846 58.162 13.3977 57.8499 13.6664C53.395 17.6117 48.94 21.5852 44.4993 25.5447C41.5199 28.2031 38.5405 30.8475 35.5611 33.5059C33.4897 35.3442 30.5103 35.3584 28.4531 33.5201C21.033 26.9163 13.6128 20.3126 6.19268 13.723C5.8238 13.3977 5.83799 13.2563 6.23525 13.0018C7.11488 12.4362 8.07964 12.1675 9.12952 12.1675C16.7483 12.1675 24.3812 12.1675 32 12.1675Z" fill="#11161C"/>
</svg>
