<svg width="64" height="64" viewBox="0 0 64 64" fill="none" xmlns="http://www.w3.org/2000/svg">
<path d="M14.6376 9.03598C15.1063 9.10279 15.5751 9.16961 16.0209 9.32894C17.9626 10.0331 19.1665 11.3797 19.5201 13.4381C19.6968 14.4558 19.6507 15.4683 19.2536 16.4345C18.6875 17.8197 17.6705 18.7602 16.2949 19.3102C15.3369 19.6931 14.3327 19.7882 13.3106 19.7368C12.5806 19.7008 11.8659 19.5749 11.1947 19.2716C9.49892 18.5032 8.44096 17.2158 8.10539 15.3603C8.09258 15.2884 8.07977 15.2164 8.06696 15.1419C8.03879 15.0802 8.0644 15.0108 8.03879 14.9492C8.02342 14.813 8.05159 14.6691 7.99268 14.538C7.99268 14.4172 7.99268 14.2964 7.99268 14.1756C8.03366 14.0446 8.03366 13.9109 8.03366 13.7773C8.03366 13.7259 8.03366 13.6745 8.03366 13.6206C8.07465 12.919 8.29751 12.2688 8.65358 11.6752C9.57065 10.1667 10.9334 9.3238 12.6574 9.04883C12.7932 9.02827 12.9341 9.03341 13.075 9.02056C13.116 9.02056 13.1569 9.02056 13.2005 9.02056C13.2517 9.02056 13.3055 9.02056 13.3567 9.02056C13.408 9.02056 13.4592 9.02056 13.5104 9.02056C13.5591 9.02056 13.6104 9.02056 13.659 9.02056C13.7051 9.01542 13.7564 9.03598 13.7999 9C13.8409 9 13.8793 9 13.9203 9C13.9587 9.03598 14.0048 9.01542 14.0484 9.02056C14.0766 9.02056 14.1047 9.02056 14.1329 9.02056C14.1713 9.02056 14.2098 9.02056 14.2482 9.02056C14.2892 9.02056 14.3276 9.02056 14.3686 9.02056C14.4198 9.02056 14.4711 9.02056 14.5223 9.02056C14.5582 9.02313 14.5991 9.01028 14.6376 9.03598Z" fill="white"/>
<path d="M56 36.3328C56 36.3585 56 36.3867 56 36.4124C56 36.4664 56 36.5204 56 36.5718C56 36.6257 56 36.6797 56 36.7311C56 36.839 56 36.9444 56 37.0523C55.9975 37.1191 55.9949 37.1859 55.9949 37.2528C55.9949 43.094 55.9949 48.9352 55.9949 54.7764C55.9949 54.851 55.9898 54.9229 55.9872 54.9975C52.5751 54.9975 49.1656 54.9975 45.7535 54.9975C45.7509 54.9178 45.7432 54.8381 45.7432 54.7585C45.7432 49.3747 45.7432 43.9883 45.7432 38.6045C45.7432 37.7487 45.7048 36.893 45.5588 36.0475C45.4256 35.274 45.2155 34.5236 44.8518 33.8246C44.1755 32.5294 43.1176 31.7585 41.6805 31.5118C40.8428 31.3678 40.0077 31.3807 39.1803 31.5631C38.2351 31.7713 37.4435 32.2544 36.7647 32.938C36.1115 33.5959 35.6094 34.3514 35.261 35.2123C35.0945 35.6235 35.0151 36.0578 34.9639 36.4972C34.9434 36.6694 34.9331 36.8442 34.9178 37.0163C34.8665 37.0729 34.8845 37.1423 34.8845 37.2091C34.8793 37.4352 34.8768 37.6639 34.8768 37.8901C34.8768 43.5052 34.8768 49.1228 34.8768 54.7379C34.8768 55.0283 34.9101 54.9975 34.6232 54.9975C31.3853 54.9975 28.1473 54.9975 24.9094 54.9975C24.6097 54.9975 24.6533 55.0283 24.6482 54.7251C24.643 54.3858 24.6712 54.044 24.6353 53.7048C24.6353 53.6175 24.6328 53.5301 24.6328 53.4453C24.6686 45.6201 24.7327 37.795 24.7071 29.9673C24.7019 28.1478 24.6994 26.3284 24.643 24.509C24.6379 24.3625 24.6328 24.216 24.6251 24.0669C24.62 23.9976 24.6482 23.9693 24.7173 23.9719C24.7634 23.9744 24.8095 23.9719 24.8582 23.9719C28.1243 23.9719 31.3904 23.9719 34.6565 23.9719C34.6821 23.9719 34.7103 23.9719 34.7359 23.9719C34.9075 23.9744 34.9101 23.9744 34.9101 24.1466C34.9101 25.4649 34.9101 26.7807 34.9101 28.099C34.9101 28.171 34.8921 28.2429 34.9331 28.3329C34.9792 28.2661 35.0228 28.2121 35.0612 28.153C35.8604 26.9683 36.8082 25.9275 37.9764 25.1C39.1573 24.2623 40.4637 23.7226 41.8803 23.4425C42.928 23.2369 43.9834 23.1932 45.0439 23.2497C46.6705 23.3345 48.2357 23.6815 49.6958 24.4267C51.9808 25.5909 53.628 27.3666 54.6731 29.7103C55.1854 30.8642 55.5133 32.072 55.7234 33.3158C55.8873 34.2872 55.9821 35.2637 56.0077 36.248C56 36.2788 56 36.3071 56 36.3328Z" fill="white"/>
<path d="M8.64303 24.0131C8.71732 24.0131 8.78904 24.0105 8.86333 24.0105C12.1166 24.0105 15.3673 24.0105 18.6206 24.0105C18.9075 24.0105 18.8845 23.9874 18.8845 24.2649C18.8845 34.4234 18.8845 44.5846 18.8845 54.7431C18.8845 55.0155 18.9101 54.9975 18.6411 54.9975C15.3084 54.9975 11.9757 54.9975 8.64559 54.9975C8.64303 54.923 8.63791 54.851 8.63791 54.7765C8.63791 44.5948 8.63791 34.4132 8.63791 24.2315C8.63534 24.1595 8.64047 24.085 8.64303 24.0131Z" fill="white"/>
</svg>
