<svg width="64" height="64" viewBox="0 0 64 64" fill="none" xmlns="http://www.w3.org/2000/svg">
<path d="M54.9984 23.32C54.9984 22.557 54.9632 21.7941 54.8458 21.0429C53.7307 14.012 47.8853 9.01174 40.7723 9C34.9269 9 29.0816 9 23.2362 9C22.2385 9 21.2408 9.08216 20.2666 9.29344C13.5761 10.7489 9.01012 16.4065 8.99838 23.2613C8.98664 29.0832 8.99838 34.9168 8.99838 40.7387C8.99838 41.4782 9.03359 42.2294 9.15097 42.9571C10.2543 49.9763 16.1114 54.9765 23.2245 54.9883C29.0698 55 34.9152 54.9883 40.7606 54.9883C41.7583 54.9883 42.756 54.9061 43.7302 54.6948C50.4207 53.2276 54.9749 47.5818 54.9866 40.727C54.9984 37.8395 54.9866 34.9403 54.9866 32.0528C54.9984 29.1419 54.9866 26.2309 54.9984 23.32ZM51.2423 40.7387C51.2306 46.6897 46.6881 51.2322 40.7371 51.2439C34.9152 51.2557 29.0816 51.2557 23.2597 51.2439C17.3087 51.2322 12.7662 46.6897 12.7544 40.7387C12.7427 34.9168 12.7427 29.0832 12.7544 23.2613C12.7662 17.3103 17.3087 12.7678 23.2597 12.7561C29.0816 12.7443 34.9152 12.7443 40.7371 12.7561C46.6881 12.7678 51.2306 17.3103 51.2423 23.2613C51.2423 26.1722 51.2423 29.0832 51.2423 31.9941C51.2423 34.9051 51.2423 37.8278 51.2423 40.7387Z" fill="white"/>
<path d="M41.5957 19.6696C41.5957 18.1907 42.8047 16.9817 44.2719 16.9817C45.7391 16.9817 46.9598 18.2024 46.9481 19.6696C46.9481 21.1251 45.7156 22.3693 44.2602 22.3576C42.8047 22.3693 41.5957 21.1368 41.5957 19.6696Z" fill="white"/>
<path d="M32.2169 20.0217C25.5381 19.9864 20.1271 25.3623 20.1036 32.0411C20.0801 38.6846 25.4442 44.0722 32.1112 44.1074C38.743 44.1426 44.1776 38.7433 44.2011 32.1232C44.2245 25.4797 38.8487 20.0569 32.2169 20.0217ZM32.123 40.3513C27.5453 40.3396 23.8597 36.6774 23.8362 32.088C23.801 27.5338 27.5688 23.7777 32.1465 23.7777C36.7242 23.7777 40.4685 27.5455 40.4333 32.1115C40.3981 36.6774 36.6889 40.3631 32.123 40.3513Z" fill="white"/>
</svg>
